<?xml version="1.0" encoding="UTF-8"?><score-partwise version="3.1"><work><work-title>score</work-title></work><part-list><score-part id="P1"><part-name>Piano</part-name></score-part></part-list><part id="P1"><measure number="1"><attributes><divisions>4</divisions><time><beats>4</beats><beat-type>4</beat-type></time><clef><sign>G</sign><line>2</line></clef></attributes><direction><words>Generated from PDF — may contain mistakes. Upload MusicXML/MXL for best quality.</words></direction><direction><sound tempo="120"/></direction><direction><words>OMR rhythm uncertain</words></direction><direction><direction-type><dynamics><f/></dynamics></direction-type></direction><note><pitch><step>E</step><octave>4</octave></pitch><duration>4</duration><voice>1</voice><type>quarter</type><notations><articulations><staccato/></articulations></notations></note><note><chord/><pitch><step>C</step><octave>3</octave></pitch><duration>4</duration><voice>1</voice><type>quarter</type><notations><articulations><staccato/></articulations></notations></note><note><rest/><duration>2</duration><voice>1</voice><type>eighth</type></note><note><pitch><step>C</step><octave>5</octave></pitch><dot/><duration>4</duration><voice>1</voice><type>quarter</type></note><note><chord/><pitch><step>E</step><octave>4</octave></pitch><dot/><duration>4</duration><voice>1</voice><type>quarter</type></note><note><chord/><pitch><step>E</step><octave>3</octave></pitch><dot/><duration>4</duration><voice>1</voice><type>quarter</type><notations><articulations><staccato/></articulations></notations></note><note><pitch><step>F</step><octave>2</octave></pitch><duration>4</duration><voice>1</voice><type>quarter</type><notations><articulations><staccato/></articulations></notations></note><note><rest/><duration>2</duration><voice>1</voice><type>eighth</type></note></measure><measure number="2"><direction><words>OMR rhythm uncertain</words></direction><direction><direction-type><dynamics><f/></dynamics></direction-type></direction><note><pitch><step>C</step><octave>3</octave></pitch><duration>4</duration><voice>1</voice><type>quarter</type><tie type="start"/></note><note><pitch><step>F</step><octave>3</octave></pitch><duration>4</duration><voice>1</voice><type>quarter</type><notations><articulations><staccato/></articulations></notations></note><note><pitch><step>F</step><octave>2</octave></pitch><duration>4</duration><voice>1</voice><type>quarter</type><beam number="1">begin</beam><tie type="start"/><notations><articulations><staccato/></articulations></notations></note><note><chord/><pitch><step>E</step><octave>4</octave></pitch><duration>4</duration><voice>1</voice><type>quarter</type><beam number="1">continue</beam><tie type="start"/><notations><articulations><staccato/></articulations></notations></note><note><chord/><pitch><step>D</step><octave>3</octave></pitch><duration>4</duration><voice>1</voice><type>quarter</type><beam number="1">continue</beam><tie type="start"/><notations><articulations><staccato/></articulations></notations></note><note><pitch><step>F</step><octave>2</octave></pitch><duration>4</duration><voice>1</voice><type>quarter</type><tie type="start"/><notations><articulations><staccato/></articulations></notations></note></measure><measure number="3"><direction><words>OMR rhythm uncertain</words></direction><direction><direction-type><dynamics><f/></dynamics></direction-type></direction><note><pitch><step>C</step><octave>3</octave></pitch><duration>4</duration><voice>1</voice><type>quarter</type><tie type="start"/><notations><articulations><staccato/></articulations></notations></note><note><rest/><duration>1</duration><voice>1</voice><type>quarter</type></note><note><pitch><step>C</step><octave>5</octave></pitch><dot/><duration>4</duration><voice>1</voice><type>quarter</type></note><note><chord/><pitch><step>C</step><octave>3</octave></pitch><dot/><duration>4</duration><voice>1</voice><type>quarter</type></note><note><pitch><step>E</step><octave>4</octave></pitch><dot/><duration>4</duration><voice>1</voice><type>quarter</type><notations><articulations><staccato/></articulations></notations></note><note><chord/><pitch><step>G</step><octave>3</octave></pitch><dot/><duration>4</duration><voice>1</voice><type>quarter</type></note><note><rest/><duration>1</duration><voice>1</voice><type>quarter</type></note><note><pitch><step>E</step><octave>3</octave></pitch><dot/><duration>2</duration><voice>1</voice><type>quarter</type><notations><articulations><staccato/></articulations></notations></note></measure><measure number="4"><direction><words>OMR rhythm uncertain</words></direction><direction><direction-type><dynamics><f/></dynamics></direction-type></direction><note><pitch><step>E</step><octave>3</octave></pitch><dot/><duration>4</duration><voice>1</voice><type>quarter</type><tie type="start"/><notations><articulations><staccato/></articulations></notations></note><note><pitch><step>C</step><octave>3</octave></pitch><duration>4</duration><voice>1</voice><type>quarter</type><tie type="start"/></note><note><pitch><step>F</step><octave>2</octave></pitch><duration>4</duration><voice>1</voice><type>quarter</type><notations><articulations><staccato/></articulations></notations></note><note><pitch><step>G</step><octave>4</octave></pitch><dot/><duration>4</duration><voice>1</voice><type>quarter</type><tie type="start"/><notations><articulations><staccato/></articulations></notations></note><note><chord/><pitch><step>F</step><octave>2</octave></pitch><dot/><duration>4</duration><voice>1</voice><type>quarter</type><tie type="start"/><notations><articulations><staccato/></articulations></notations></note></measure><measure number="5"><direction><words>OMR rhythm uncertain</words></direction><direction><direction-type><dynamics><f/></dynamics></direction-type></direction><note><pitch><step>A</step><octave>2</octave></pitch><dot/><duration>4</duration><voice>1</voice><type>quarter</type><tie type="start"/><notations><articulations><staccato/></articulations></notations></note><note><pitch><step>F</step><octave>2</octave></pitch><duration>4</duration><voice>1</voice><type>quarter</type><tie type="start"/><notations><articulations><staccato/></articulations></notations></note><note><pitch><step>F</step><octave>2</octave></pitch><duration>4</duration><voice>1</voice><type>quarter</type><notations><articulations><staccato/></articulations></notations></note><note><pitch><step>G</step><octave>4</octave></pitch><duration>4</duration><voice>1</voice><type>quarter</type><tie type="start"/><notations><articulations><staccato/></articulations></notations></note><note><chord/><pitch><step>F</step><octave>2</octave></pitch><duration>4</duration><voice>1</voice><type>quarter</type><tie type="start"/><notations><articulations><staccato/></articulations></notations></note></measure><measure number="6"><direction><words>OMR rhythm uncertain</words></direction><direction><direction-type><dynamics><f/></dynamics></direction-type></direction><note><pitch><step>A</step><octave>2</octave></pitch><dot/><duration>4</duration><voice>1</voice><type>quarter</type><tie type="start"/><notations><articulations><staccato/></articulations></notations></note><note><pitch><step>E</step><octave>4</octave></pitch><duration>4</duration><voice>1</voice><type>quarter</type><tie type="start"/></note><note><chord/><pitch><step>F</step><octave>3</octave></pitch><duration>4</duration><voice>1</voice><type>quarter</type><tie type="start"/><notations><articulations><staccato/></articulations></notations></note><note><pitch><step>F</step><octave>2</octave></pitch><duration>4</duration><voice>1</voice><type>quarter</type><notations><articulations><staccato/></articulations></notations></note><note><pitch><step>C</step><octave>5</octave></pitch><dot/><duration>4</duration><voice>1</voice><type>quarter</type></note><note><chord/><pitch><step>A</step><octave>2</octave></pitch><dot/><duration>4</duration><voice>1</voice><type>quarter</type><notations><articulations><staccato/></articulations></notations></note></measure><measure number="7"><direction><words>OMR rhythm uncertain</words></direction><direction><direction-type><dynamics><f/></dynamics></direction-type></direction><note><pitch><step>G</step><octave>3</octave></pitch><duration>4</duration><voice>1</voice><type>quarter</type><beam number="1">begin</beam></note><note><chord/><pitch><step>E</step><octave>4</octave></pitch><duration>4</duration><voice>1</voice><type>quarter</type><beam number="1">continue</beam><notations><articulations><staccato/></articulations></notations></note><note><pitch><step>E</step><octave>3</octave></pitch><dot/><duration>4</duration><voice>1</voice><type>quarter</type><notations><articulations><staccato/></articulations></notations></note><note><pitch><step>C</step><octave>3</octave></pitch><duration>4</duration><voice>1</voice><type>quarter</type><tie type="start"/></note><note><pitch><step>G</step><octave>3</octave></pitch><duration>4</duration><voice>1</voice><type>quarter</type><beam number="1">begin</beam></note><note><chord/><pitch><step>E</step><octave>4</octave></pitch><duration>4</duration><voice>1</voice><type>quarter</type><beam number="1">continue</beam><notations><articulations><staccato/></articulations></notations></note></measure><measure number="8"><barline location="left"><bar-style>heavy-light</bar-style><repeat direction="forward"/></barline><direction><words>OMR rhythm uncertain</words></direction><direction><direction-type><dynamics><f/></dynamics></direction-type></direction><note><pitch><step>D</step><octave>3</octave></pitch><duration>4</duration><voice>1</voice><type>quarter</type><notations><articulations><staccato/></articulations></notations></note><note><pitch><step>D</step><octave>3</octave></pitch><dot/><duration>4</duration><voice>1</voice><type>quarter</type><notations><articulations><staccato/></articulations></notations></note><note><pitch><step>D</step><octave>3</octave></pitch><dot/><duration>4</duration><voice>1</voice><type>quarter</type><notations><articulations><staccato/></articulations></notations></note><note><pitch><step>A</step><octave>3</octave></pitch><dot/><duration>4</duration><voice>1</voice><type>quarter</type><tie type="start"/><notations><articulations><staccato/></articulations></notations></note><note><chord/><pitch><step>D</step><octave>3</octave></pitch><dot/><duration>4</duration><voice>1</voice><type>quarter</type><tie type="start"/><notations><articulations><staccato/></articulations></notations></note></measure><measure number="9"><direction><words>OMR rhythm uncertain</words></direction><direction><direction-type><dynamics><f/></dynamics></direction-type></direction><note><pitch><step>D</step><octave>4</octave></pitch><dot/><duration>4</duration><voice>1</voice><type>quarter</type><tie type="start"/><notations><articulations><staccato/></articulations></notations></note><note><pitch><step>D</step><octave>3</octave></pitch><dot/><duration>4</duration><voice>1</voice><type>quarter</type><notations><articulations><staccato/></articulations></notations></note><note><chord/><pitch><step>D</step><octave>3</octave></pitch><dot/><duration>4</duration><voice>1</voice><type>quarter</type><notations><articulations><staccato/></articulations></notations></note><note><rest/><duration>1</duration><voice>1</voice><type>quarter</type></note><note><pitch><step>D</step><octave>3</octave></pitch><dot/><duration>4</duration><voice>1</voice><type>quarter</type><notations><articulations><staccato/></articulations></notations></note><note><rest/><duration>1</duration><voice>1</voice><type>quarter</type></note><note><pitch><step>E</step><octave>4</octave></pitch><dot/><duration>2</duration><voice>1</voice><type>quarter</type><notations><articulations><staccato/></articulations></notations></note><note><chord/><pitch><step>D</step><octave>3</octave></pitch><dot/><duration>2</duration><voice>1</voice><type>quarter</type><notations><articulations><staccato/></articulations></notations></note></measure><measure number="10"><direction><words>OMR rhythm uncertain</words></direction><direction><direction-type><dynamics><f/></dynamics></direction-type></direction><note><pitch><step>A</step><octave>2</octave></pitch><dot/><duration>4</duration><voice>1</voice><type>quarter</type></note><note><rest/><duration>1</duration><voice>1</voice><type>quarter</type></note><note><pitch><step>D</step><octave>3</octave></pitch><duration>4</duration><voice>1</voice><type>quarter</type><notations><articulations><staccato/></articulations></notations></note><note><rest/><duration>2</duration><voice>1</voice><type>eighth</type></note><note><pitch><step>D</step><octave>3</octave></pitch><dot/><duration>4</duration><voice>1</voice><type>quarter</type><notations><articulations><staccato/></articulations></notations></note><note><chord/><pitch><step>D</step><octave>3</octave></pitch><dot/><duration>4</duration><voice>1</voice><type>quarter</type><notations><articulations><staccato/></articulations></notations></note><note><rest/><duration>1</duration><voice>1</voice><type>quarter</type></note></measure><measure number="11"><direction><words>OMR rhythm uncertain</words></direction><direction><direction-type><dynamics><f/></dynamics></direction-type></direction><note><pitch><step>A</step><octave>2</octave></pitch><duration>4</duration><voice>1</voice><type>quarter</type><notations><articulations><staccato/></articulations></notations></note><note><rest/><duration>2</duration><voice>1</voice><type>eighth</type></note><note><pitch><step>D</step><octave>3</octave></pitch><dot/><duration>4</duration><voice>1</voice><type>quarter</type><notations><articulations><staccato/></articulations></notations></note><note><pitch><step>D</step><octave>3</octave></pitch><dot/><duration>4</duration><voice>1</voice><type>quarter</type><notations><articulations><staccato/></articulations></notations></note><note><rest/><duration>2</duration><voice>1</voice><type>eighth</type></note></measure><measure number="12"><direction><words>OMR rhythm uncertain</words></direction><direction><direction-type><dynamics><f/></dynamics></direction-type></direction><note><pitch><step>D</step><octave>4</octave></pitch><dot/><duration>4</duration><voice>1</voice><type>quarter</type><tie type="start"/><notations><articulations><staccato/></articulations></notations></note><note><pitch><step>D</step><octave>3</octave></pitch><dot/><duration>4</duration><voice>1</voice><type>quarter</type><notations><articulations><staccato/></articulations></notations></note><note><chord/><pitch><step>D</step><octave>3</octave></pitch><dot/><duration>4</duration><voice>1</voice><type>quarter</type><notations><articulations><staccato/></articulations></notations></note><note><rest/><duration>1</duration><voice>1</voice><type>quarter</type></note><note><pitch><step>D</step><octave>3</octave></pitch><dot/><duration>4</duration><voice>1</voice><type>quarter</type><notations><articulations><staccato/></articulations></notations></note><note><rest/><duration>1</duration><voice>1</voice><type>quarter</type></note><note><pitch><step>E</step><octave>4</octave></pitch><dot/><duration>2</duration><voice>1</voice><type>quarter</type><notations><articulations><staccato/></articulations></notations></note><note><chord/><pitch><step>D</step><octave>3</octave></pitch><dot/><duration>2</duration><voice>1</voice><type>quarter</type><notations><articulations><staccato/></articulations></notations></note></measure><measure number="13"><direction><words>OMR rhythm uncertain</words></direction><direction><direction-type><dynamics><f/></dynamics></direction-type></direction><note><pitch><step>A</step><octave>2</octave></pitch><dot/><duration>4</duration><voice>1</voice><type>quarter</type></note><note><chord/><pitch><step>D</step><octave>3</octave></pitch><dot/><duration>4</duration><voice>1</voice><type>quarter</type><notations><articulations><staccato/></articulations></notations></note><note><rest/><duration>1</duration><voice>1</voice><type>quarter</type></note><note><pitch><step>C</step><octave>5</octave></pitch><dot/><duration>4</duration><voice>1</voice><type>quarter</type><notations><articulations><staccato/></articulations></notations></note><note><chord/><pitch><step>A</step><octave>2</octave></pitch><dot/><duration>4</duration><voice>1</voice><type>quarter</type><notations><articulations><staccato/></articulations></notations></note><note><pitch><step>D</step><octave>3</octave></pitch><dot/><duration>4</duration><voice>1</voice><type>quarter</type><notations><articulations><staccato/></articulations></notations></note><note><rest/><duration>1</duration><voice>1</voice><type>quarter</type></note><note><pitch><step>D</step><octave>3</octave></pitch><dot/><duration>2</duration><voice>1</voice><type>quarter</type><tie type="start"/><notations><articulations><staccato/></articulations></notations></note></measure><measure number="14"><barline location="right"><bar-style>light-heavy</bar-style><repeat direction="backward"/></barline><direction><words>OMR rhythm uncertain</words></direction><direction><direction-type><dynamics><f/></dynamics></direction-type></direction><note><pitch><step>D</step><octave>3</octave></pitch><dot/><duration>4</duration><voice>1</voice><type>quarter</type><notations><articulations><staccato/></articulations></notations></note><note><rest/><duration>1</duration><voice>1</voice><type>quarter</type></note><note><pitch><step>D</step><octave>3</octave></pitch><dot/><duration>4</duration><voice>1</voice><type>quarter</type><notations><articulations><staccato/></articulations></notations></note><note><rest/><duration>2</duration><voice>1</voice><type>eighth</type></note><note><pitch><step>D</step><octave>3</octave></pitch><duration>4</duration><voice>1</voice><type>quarter</type><beam number="1">begin</beam><tie type="start"/><notations><articulations><staccato/></articulations></notations></note><note><rest/><duration>1</duration><voice>1</voice><type>quarter</type></note></measure></part></score-partwise>