<?xml version="1.0" encoding="UTF-8"?><score-partwise version="3.1"><work><work-title>a-cruel-angels-thesis-neon-genesis-evangelion</work-title></work><part-list><score-part id="P1"><part-name>Piano</part-name></score-part></part-list><part id="P1"><measure number="1"><attributes><divisions>4</divisions><key><fifths>-3</fifths><mode>major</mode></key><time><beats>4</beats><beat-type>4</beat-type></time><clef><sign>G</sign><line>2</line></clef></attributes><direction><words>Generated from PDF — may contain mistakes. Upload MusicXML/MXL for best quality.</words></direction><direction><sound tempo="120"/></direction><forward><duration>2</duration></forward><note><pitch><step>A</step><alter>1</alter><octave>2</octave></pitch><duration>4</duration><voice>2</voice><type>quarter</type></note><note><chord/><pitch><step>G</step><octave>2</octave></pitch><duration>4</duration><voice>2</voice><type>quarter</type></note><note><chord/><pitch><step>D</step><alter>1</alter><octave>2</octave></pitch><duration>4</duration><voice>2</voice><type>quarter</type></note><backup><duration>4</duration></backup><note><pitch><step>C</step><octave>5</octave></pitch><duration>4</duration><voice>1</voice><type>quarter</type></note><note><pitch><step>D</step><alter>1</alter><octave>5</octave></pitch><duration>2</duration><voice>1</voice><type>eighth</type></note><note><pitch><step>C</step><octave>3</octave></pitch><duration>4</duration><voice>2</voice><type>quarter</type></note><note><chord/><pitch><step>G</step><alter>1</alter><octave>2</octave></pitch><duration>4</duration><voice>2</voice><type>quarter</type></note><note><chord/><pitch><step>D</step><alter>1</alter><octave>2</octave></pitch><duration>4</duration><voice>2</voice><type>quarter</type></note><backup><duration>4</duration></backup><note><pitch><step>F</step><octave>5</octave></pitch><duration>4</duration><voice>1</voice><type>quarter</type><notations><articulations><staccato/></articulations></notations></note><note><pitch><step>D</step><alter>1</alter><octave>5</octave></pitch><duration>2</duration><voice>1</voice><type>eighth</type></note><note><pitch><step>F</step><octave>5</octave></pitch><duration>2</duration><voice>1</voice><type>eighth</type><tie type="start"/><notations><tied type="start"/></notations></note></measure><measure number="2"><note><pitch><step>D</step><octave>3</octave></pitch><duration>4</duration><voice>2</voice><type>quarter</type></note><note><chord/><pitch><step>G</step><alter>1</alter><octave>2</octave></pitch><duration>4</duration><voice>2</voice><type>quarter</type></note><note><chord/><pitch><step>F</step><octave>2</octave></pitch><duration>4</duration><voice>2</voice><type>quarter</type></note><backup><duration>4</duration></backup><note><pitch><step>F</step><octave>5</octave></pitch><duration>4</duration><voice>1</voice><type>quarter</type><tie type="start"/><tie type="stop"/><notations><tied type="start"/><tied type="stop"/></notations></note><note><pitch><step>F</step><octave>5</octave></pitch><duration>2</duration><voice>1</voice><type>eighth</type><tie type="stop"/><notations><tied type="stop"/></notations></note><note><pitch><step>A</step><alter>1</alter><octave>5</octave></pitch><duration>2</duration><voice>1</voice><type>eighth</type></note><note><pitch><step>G</step><alter>1</alter><octave>5</octave></pitch><duration>2</duration><voice>1</voice><type>eighth</type></note><note><pitch><step>D</step><octave>3</octave></pitch><duration>2</duration><voice>2</voice><type>eighth</type></note><note><chord/><pitch><step>G</step><octave>2</octave></pitch><duration>2</duration><voice>2</voice><type>eighth</type></note><backup><duration>2</duration></backup><note><pitch><step>G</step><octave>5</octave></pitch><duration>2</duration><voice>1</voice><type>eighth</type></note><note><chord/><pitch><step>F</step><octave>5</octave></pitch><duration>2</duration><voice>1</voice><type>eighth</type></note><note><pitch><step>G</step><octave>5</octave></pitch><duration>4</duration><voice>1</voice><type>quarter</type><tie type="start"/><notations><tied type="start"/></notations></note></measure><measure number="3"><note><pitch><step>A</step><alter>1</alter><octave>2</octave></pitch><dot/><duration>6</duration><voice>2</voice><type>quarter</type></note><note><chord/><pitch><step>G</step><octave>2</octave></pitch><dot/><duration>6</duration><voice>2</voice><type>quarter</type></note><note><chord/><pitch><step>D</step><alter>1</alter><octave>2</octave></pitch><dot/><duration>6</duration><voice>2</voice><type>quarter</type></note><backup><duration>6</duration></backup><note><pitch><step>G</step><octave>5</octave></pitch><dot/><duration>6</duration><voice>1</voice><type>quarter</type><tie type="stop"/><notations><tied type="stop"/></notations></note><note><pitch><step>A</step><alter>1</alter><octave>5</octave></pitch><duration>2</duration><voice>1</voice><type>eighth</type></note><note><pitch><step>D</step><alter>1</alter><octave>3</octave></pitch><duration>4</duration><voice>2</voice><type>quarter</type></note><note><chord/><pitch><step>C</step><octave>3</octave></pitch><duration>4</duration><voice>2</voice><type>quarter</type></note><note><chord/><pitch><step>G</step><octave>2</octave></pitch><duration>4</duration><voice>2</voice><type>quarter</type></note><backup><duration>4</duration></backup><note><pitch><step>C</step><octave>6</octave></pitch><duration>4</duration><voice>1</voice><type>quarter</type><notations><articulations><staccato/></articulations></notations></note><note><pitch><step>F</step><octave>5</octave></pitch><duration>2</duration><voice>1</voice><type>eighth</type><notations><articulations><staccato/></articulations></notations></note><note><pitch><step>D</step><alter>1</alter><octave>5</octave></pitch><duration>2</duration><voice>1</voice><type>eighth</type></note></measure><measure number="4"><note><pitch><step>F</step><octave>3</octave></pitch><duration>4</duration><voice>2</voice><type>quarter</type></note><note><chord/><pitch><step>D</step><octave>3</octave></pitch><duration>4</duration><voice>2</voice><type>quarter</type></note><note><chord/><pitch><step>A</step><alter>1</alter><octave>2</octave></pitch><duration>4</duration><voice>2</voice><type>quarter</type></note><note><chord/><pitch><step>G</step><alter>1</alter><octave>2</octave></pitch><duration>4</duration><voice>2</voice><type>quarter</type></note><note><chord/><pitch><step>F</step><octave>2</octave></pitch><duration>4</duration><voice>2</voice><type>quarter</type></note><backup><duration>4</duration></backup><note><pitch><step>A</step><alter>1</alter><octave>5</octave></pitch><duration>4</duration><voice>1</voice><type>quarter</type><tie type="start"/><notations><tied type="start"/></notations></note><note><pitch><step>A</step><alter>1</alter><octave>5</octave></pitch><duration>2</duration><voice>1</voice><type>eighth</type><tie type="start"/><tie type="stop"/><notations><tied type="start"/><tied type="stop"/></notations></note><note><pitch><step>G</step><octave>5</octave></pitch><duration>2</duration><voice>1</voice><type>eighth</type></note><note><pitch><step>A</step><alter>1</alter><octave>5</octave></pitch><duration>2</duration><voice>1</voice><type>eighth</type><tie type="start"/><tie type="stop"/><notations><tied type="start"/><tied type="stop"/></notations></note><note><pitch><step>D</step><alter>1</alter><octave>3</octave></pitch><duration>2</duration><voice>2</voice><type>eighth</type></note><note><chord/><pitch><step>A</step><alter>1</alter><octave>2</octave></pitch><duration>2</duration><voice>2</voice><type>eighth</type></note><note><chord/><pitch><step>G</step><octave>2</octave></pitch><duration>2</duration><voice>2</voice><type>eighth</type></note><backup><duration>2</duration></backup><note><pitch><step>A</step><alter>1</alter><octave>5</octave></pitch><duration>2</duration><voice>1</voice><type>eighth</type><tie type="stop"/><notations><tied type="stop"/></notations></note><note><pitch><step>C</step><octave>6</octave></pitch><duration>4</duration><voice>1</voice><type>quarter</type></note></measure><measure number="5"><note><pitch><step>D</step><alter>1</alter><octave>3</octave></pitch><duration>4</duration><voice>2</voice><type>quarter</type></note><note><chord/><pitch><step>A</step><alter>1</alter><octave>2</octave></pitch><duration>4</duration><voice>2</voice><type>quarter</type></note><note><chord/><pitch><step>G</step><octave>2</octave></pitch><duration>4</duration><voice>2</voice><type>quarter</type></note><backup><duration>4</duration></backup><note><pitch><step>C</step><octave>6</octave></pitch><duration>4</duration><voice>1</voice><type>quarter</type></note><note><pitch><step>G</step><octave>2</octave></pitch><duration>4</duration><voice>2</voice><type>quarter</type></note><backup><duration>1</duration></backup><note><rest/><duration>9</duration><voice>1</voice><type>half</type></note><backup><duration>8</duration></backup><note><pitch><step>D</step><octave>2</octave></pitch><duration>4</duration><voice>2</voice><type>quarter</type></note><note><pitch><step>G</step><octave>1</octave></pitch><duration>4</duration><voice>2</voice><type>quarter</type></note></measure><measure number="6"><forward><duration>2</duration></forward><note><pitch><step>C</step><octave>2</octave></pitch><duration>2</duration><voice>2</voice><type>eighth</type></note><note><pitch><step>C</step><octave>3</octave></pitch><duration>2</duration><voice>2</voice><type>eighth</type></note><note><chord/><pitch><step>G</step><octave>2</octave></pitch><duration>2</duration><voice>2</voice><type>eighth</type></note><backup><duration>2</duration></backup><note><pitch><step>D</step><alter>1</alter><octave>4</octave></pitch><duration>2</duration><voice>1</voice><type>eighth</type></note><note><pitch><step>D</step><alter>1</alter><octave>3</octave></pitch><duration>2</duration><voice>2</voice><type>eighth</type></note><note><chord/><pitch><step>D</step><alter>1</alter><octave>2</octave></pitch><duration>2</duration><voice>2</voice><type>eighth</type></note><note><pitch><step>F</step><octave>3</octave></pitch><duration>2</duration><voice>2</voice><type>eighth</type></note><note><chord/><pitch><step>C</step><octave>3</octave></pitch><duration>2</duration><voice>2</voice><type>eighth</type></note><note><chord/><pitch><step>F</step><octave>2</octave></pitch><duration>2</duration><voice>2</voice><type>eighth</type></note><backup><duration>2</duration></backup><note><pitch><step>F</step><octave>4</octave></pitch><duration>2</duration><voice>1</voice><type>eighth</type></note><note><chord/><pitch><step>C</step><octave>4</octave></pitch><duration>2</duration><voice>1</voice><type>eighth</type><notations><articulations><staccato/></articulations></notations></note><note><chord/><pitch><step>G</step><alter>1</alter><octave>3</octave></pitch><duration>2</duration><voice>1</voice><type>eighth</type></note><note><pitch><step>F</step><octave>2</octave></pitch><duration>2</duration><voice>2</voice><type>eighth</type></note><backup><duration>2</duration></backup><note><pitch><step>D</step><alter>1</alter><octave>4</octave></pitch><duration>2</duration><voice>1</voice><type>eighth</type><notations><articulations><staccato/></articulations></notations></note><note><pitch><step>F</step><octave>3</octave></pitch><duration>2</duration><voice>2</voice><type>eighth</type></note><note><chord/><pitch><step>C</step><octave>3</octave></pitch><duration>2</duration><voice>2</voice><type>eighth</type></note><note><pitch><step>C</step><octave>3</octave></pitch><duration>2</duration><voice>2</voice><type>eighth</type></note><note><chord/><pitch><step>C</step><octave>2</octave></pitch><duration>2</duration><voice>2</voice><type>eighth</type></note><backup><duration>2</duration></backup><note><pitch><step>F</step><octave>4</octave></pitch><duration>2</duration><voice>1</voice><type>eighth</type></note></measure><measure number="7"><forward><duration>2</duration></forward><note><pitch><step>A</step><alter>1</alter><octave>2</octave></pitch><duration>4</duration><voice>2</voice><type>quarter</type></note><note><chord/><pitch><step>F</step><octave>2</octave></pitch><duration>4</duration><voice>2</voice><type>quarter</type></note><note><chord/><pitch><step>A</step><alter>1</alter><octave>1</octave></pitch><duration>4</duration><voice>2</voice><type>quarter</type></note><backup><duration>4</duration></backup><note><pitch><step>F</step><octave>4</octave></pitch><duration>4</duration><voice>1</voice><type>quarter</type></note><note><chord/><pitch><step>D</step><octave>4</octave></pitch><duration>4</duration><voice>1</voice><type>quarter</type></note><note><chord/><pitch><step>A</step><alter>1</alter><octave>3</octave></pitch><duration>4</duration><voice>1</voice><type>quarter</type></note><note><pitch><step>A</step><alter>1</alter><octave>1</octave></pitch><duration>4</duration><voice>2</voice><type>quarter</type></note><backup><duration>4</duration></backup><note><pitch><step>F</step><octave>4</octave></pitch><duration>4</duration><voice>1</voice><type>quarter</type></note><note><pitch><step>A</step><alter>1</alter><octave>2</octave></pitch><duration>2</duration><voice>2</voice><type>eighth</type></note><note><chord/><pitch><step>F</step><octave>2</octave></pitch><duration>2</duration><voice>2</voice><type>eighth</type></note><backup><duration>2</duration></backup><note><pitch><step>A</step><alter>1</alter><octave>4</octave></pitch><duration>2</duration><voice>1</voice><type>eighth</type></note><note><chord/><pitch><step>D</step><octave>4</octave></pitch><duration>2</duration><voice>1</voice><type>eighth</type></note><note><pitch><step>D</step><octave>3</octave></pitch><dot/><duration>3</duration><voice>2</voice><type>eighth</type></note><note><chord/><pitch><step>D</step><octave>2</octave></pitch><dot/><duration>3</duration><voice>2</voice><type>eighth</type></note><backup><duration>3</duration></backup><note><pitch><step>G</step><alter>1</alter><octave>4</octave></pitch><dot/><duration>3</duration><voice>1</voice><type>eighth</type></note><note><pitch><step>D</step><alter>1</alter><octave>3</octave></pitch><duration>1</duration><voice>2</voice><type>sixteenth</type></note><note><chord/><pitch><step>A</step><alter>1</alter><octave>2</octave></pitch><duration>1</duration><voice>2</voice><type>sixteenth</type></note><note><chord/><pitch><step>D</step><alter>1</alter><octave>2</octave></pitch><duration>1</duration><voice>2</voice><type>sixteenth</type></note><backup><duration>1</duration></backup><note><pitch><step>G</step><octave>4</octave></pitch><duration>1</duration><voice>1</voice><type>sixteenth</type></note><note><chord/><pitch><step>D</step><alter>1</alter><octave>4</octave></pitch><duration>1</duration><voice>1</voice><type>sixteenth</type></note></measure><measure number="8"><note><pitch><step>D</step><alter>1</alter><octave>2</octave></pitch><dot/><duration>12</duration><voice>2</voice><type>half</type></note><backup><duration>12</duration></backup><note><pitch><step>F</step><octave>4</octave></pitch><dot/><duration>12</duration><voice>1</voice><type>half</type></note><backup><duration>8</duration></backup><note><pitch><step>D</step><alter>1</alter><octave>3</octave></pitch><duration>2</duration><voice>2</voice><type>eighth</type></note><note><chord/><pitch><step>A</step><alter>1</alter><octave>2</octave></pitch><duration>2</duration><voice>2</voice><type>eighth</type></note><backup><duration>2</duration></backup><note><pitch><step>G</step><octave>4</octave></pitch><duration>2</duration><voice>1</voice><type>eighth</type><notations><articulations><staccato/></articulations></notations></note><note><chord/><pitch><step>D</step><alter>1</alter><octave>4</octave></pitch><duration>2</duration><voice>1</voice><type>eighth</type></note><note><pitch><step>D</step><octave>3</octave></pitch><duration>4</duration><voice>2</voice><type>quarter</type></note><note><chord/><pitch><step>D</step><octave>2</octave></pitch><duration>4</duration><voice>2</voice><type>quarter</type></note><note><pitch><step>C</step><octave>3</octave></pitch><duration>2</duration><voice>2</voice><type>eighth</type></note><note><chord/><pitch><step>G</step><octave>2</octave></pitch><duration>2</duration><voice>2</voice><type>eighth</type></note><note><chord/><pitch><step>C</step><octave>2</octave></pitch><duration>2</duration><voice>2</voice><type>eighth</type></note><backup><duration>2</duration></backup><note><pitch><step>G</step><octave>4</octave></pitch><duration>2</duration><voice>1</voice><type>eighth</type></note><note><chord/><pitch><step>D</step><alter>1</alter><octave>4</octave></pitch><duration>2</duration><voice>1</voice><type>eighth</type></note><note><chord/><pitch><step>C</step><octave>4</octave></pitch><duration>2</duration><voice>1</voice><type>eighth</type></note><note><pitch><step>C</step><octave>2</octave></pitch><duration>2</duration><voice>2</voice><type>eighth</type></note><note><chord/><pitch><step>C</step><octave>3</octave></pitch><duration>2</duration><voice>2</voice><type>eighth</type></note><note><chord/><pitch><step>G</step><octave>2</octave></pitch><duration>2</duration><voice>2</voice><type>eighth</type></note><backup><duration>2</duration></backup><note><pitch><step>A</step><alter>1</alter><octave>4</octave></pitch><duration>2</duration><voice>1</voice><type>eighth</type></note><note><pitch><step>D</step><alter>1</alter><octave>3</octave></pitch><duration>1</duration><voice>2</voice><type>sixteenth</type></note><note><chord/><pitch><step>D</step><alter>1</alter><octave>2</octave></pitch><duration>1</duration><voice>2</voice><type>sixteenth</type></note><note><pitch><step>F</step><octave>3</octave></pitch><duration>1</duration><voice>2</voice><type>sixteenth</type></note><note><chord/><pitch><step>C</step><octave>3</octave></pitch><duration>1</duration><voice>2</voice><type>sixteenth</type></note><note><chord/><pitch><step>F</step><octave>2</octave></pitch><duration>1</duration><voice>2</voice><type>sixteenth</type></note><backup><duration>1</duration></backup><note><pitch><step>C</step><octave>5</octave></pitch><duration>1</duration><voice>1</voice><type>sixteenth</type></note><note><chord/><pitch><step>G</step><alter>1</alter><octave>4</octave></pitch><duration>1</duration><voice>1</voice><type>sixteenth</type></note><note><chord/><pitch><step>F</step><octave>4</octave></pitch><duration>1</duration><voice>1</voice><type>sixteenth</type></note></measure><measure number="9"><forward><duration>2</duration></forward><note><pitch><step>F</step><octave>3</octave></pitch><duration>4</duration><voice>2</voice><type>quarter</type></note><note><chord/><pitch><step>C</step><octave>3</octave></pitch><duration>4</duration><voice>2</voice><type>quarter</type></note><note><chord/><pitch><step>F</step><octave>2</octave></pitch><duration>4</duration><voice>2</voice><type>quarter</type></note><backup><duration>4</duration></backup><note><pitch><step>F</step><octave>4</octave></pitch><duration>4</duration><voice>1</voice><type>quarter</type></note><note><pitch><step>C</step><octave>3</octave></pitch><duration>2</duration><voice>2</voice><type>eighth</type></note><note><chord/><pitch><step>C</step><octave>2</octave></pitch><duration>2</duration><voice>2</voice><type>eighth</type></note><backup><duration>2</duration></backup><note><pitch><step>D</step><alter>1</alter><octave>4</octave></pitch><duration>2</duration><voice>1</voice><type>eighth</type></note><note><pitch><step>A</step><alter>1</alter><octave>2</octave></pitch><duration>2</duration><voice>2</voice><type>eighth</type></note><note><chord/><pitch><step>F</step><octave>2</octave></pitch><duration>2</duration><voice>2</voice><type>eighth</type></note><note><chord/><pitch><step>A</step><alter>1</alter><octave>1</octave></pitch><duration>2</duration><voice>2</voice><type>eighth</type><notations><articulations><staccato/></articulations></notations></note><backup><duration>2</duration></backup><note><pitch><step>A</step><alter>1</alter><octave>4</octave></pitch><duration>2</duration><voice>1</voice><type>eighth</type></note><note><chord/><pitch><step>D</step><octave>4</octave></pitch><duration>2</duration><voice>1</voice><type>eighth</type><notations><articulations><staccato/></articulations></notations></note><note><pitch><step>A</step><alter>1</alter><octave>2</octave></pitch><duration>2</duration><voice>2</voice><type>eighth</type></note><note><chord/><pitch><step>F</step><octave>2</octave></pitch><duration>2</duration><voice>2</voice><type>eighth</type></note><note><chord/><pitch><step>A</step><alter>1</alter><octave>1</octave></pitch><duration>2</duration><voice>2</voice><type>eighth</type><notations><articulations><staccato/></articulations></notations></note><backup><duration>2</duration></backup><note><pitch><step>A</step><alter>1</alter><octave>4</octave></pitch><duration>2</duration><voice>1</voice><type>eighth</type></note><note><chord/><pitch><step>D</step><octave>4</octave></pitch><duration>2</duration><voice>1</voice><type>eighth</type><notations><articulations><staccato/></articulations></notations></note><note><pitch><step>A</step><alter>1</alter><octave>2</octave></pitch><duration>2</duration><voice>2</voice><type>eighth</type></note><note><chord/><pitch><step>F</step><octave>2</octave></pitch><duration>2</duration><voice>2</voice><type>eighth</type></note><note><chord/><pitch><step>A</step><alter>1</alter><octave>1</octave></pitch><duration>2</duration><voice>2</voice><type>eighth</type><notations><articulations><staccato/></articulations></notations></note><backup><duration>2</duration></backup><note><pitch><step>G</step><octave>4</octave></pitch><duration>2</duration><voice>1</voice><type>eighth</type></note><note><chord/><pitch><step>D</step><octave>4</octave></pitch><duration>2</duration><voice>1</voice><type>eighth</type><notations><articulations><staccato/></articulations></notations></note><note><pitch><step>B</step><octave>2</octave></pitch><duration>1</duration><voice>2</voice><type>sixteenth</type></note><note><chord/><pitch><step>F</step><alter>1</alter><octave>2</octave></pitch><duration>1</duration><voice>2</voice><type>sixteenth</type></note><note><chord/><pitch><step>B</step><octave>1</octave></pitch><duration>1</duration><voice>2</voice><type>sixteenth</type><notations><articulations><staccato/></articulations></notations></note><backup><duration>1</duration></backup><note><pitch><step>A</step><alter>1</alter><octave>4</octave></pitch><duration>1</duration><voice>1</voice><type>sixteenth</type></note><note><chord/><pitch><step>D</step><octave>4</octave></pitch><duration>1</duration><voice>1</voice><type>sixteenth</type><notations><articulations><staccato/></articulations></notations></note><note><pitch><step>C</step><octave>3</octave></pitch><duration>1</duration><voice>2</voice><type>sixteenth</type></note><note><chord/><pitch><step>G</step><octave>2</octave></pitch><duration>1</duration><voice>2</voice><type>sixteenth</type></note><note><chord/><pitch><step>C</step><octave>2</octave></pitch><duration>1</duration><voice>2</voice><type>sixteenth</type></note><backup><duration>1</duration></backup><note><pitch><step>A</step><alter>1</alter><octave>4</octave></pitch><duration>1</duration><voice>1</voice><type>sixteenth</type></note><note><chord/><pitch><step>D</step><octave>4</octave></pitch><duration>1</duration><voice>1</voice><type>sixteenth</type><notations><articulations><staccato/></articulations></notations></note></measure><measure number="10"><note><pitch><step>C</step><octave>3</octave></pitch><dot/><duration>12</duration><voice>2</voice><type>half</type></note><backup><duration>8</duration></backup><note><pitch><step>C</step><octave>5</octave></pitch><duration>4</duration><voice>1</voice><type>quarter</type></note><note><chord/><pitch><step>D</step><alter>1</alter><octave>4</octave></pitch><duration>4</duration><voice>1</voice><type>quarter</type><notations><articulations><staccato/></articulations></notations></note><note><pitch><step>A</step><alter>1</alter><octave>2</octave></pitch><duration>8</duration><voice>2</voice><type>half</type></note><note><chord/><pitch><step>A</step><alter>1</alter><octave>1</octave></pitch><duration>8</duration><voice>2</voice><type>half</type></note><backup><duration>5</duration></backup><note><rest/><duration>5</duration><voice>1</voice><type>quarter</type></note><backup><duration>4</duration></backup><note><pitch><step>A</step><alter>1</alter><octave>2</octave></pitch><duration>4</duration><voice>2</voice><type>quarter</type></note></measure><measure number="11"><note><pitch><step>D</step><alter>1</alter><octave>3</octave></pitch><duration>4</duration><voice>2</voice><type>quarter</type></note><note><chord/><pitch><step>D</step><alter>1</alter><octave>2</octave></pitch><duration>4</duration><voice>2</voice><type>quarter</type></note><backup><duration>4</duration></backup><note><pitch><step>D</step><alter>1</alter><octave>4</octave></pitch><duration>4</duration><voice>1</voice><type>quarter</type></note><note><chord/><pitch><step>A</step><alter>1</alter><octave>3</octave></pitch><duration>4</duration><voice>1</voice><type>quarter</type></note><note><chord/><pitch><step>G</step><octave>3</octave></pitch><duration>4</duration><voice>1</voice><type>quarter</type></note><note><pitch><step>D</step><alter>1</alter><octave>3</octave></pitch><duration>2</duration><voice>2</voice><type>eighth</type></note><backup><duration>2</duration></backup><note><pitch><step>D</step><alter>1</alter><octave>5</octave></pitch><duration>2</duration><voice>1</voice><type>eighth</type></note><note><pitch><step>D</step><alter>1</alter><octave>2</octave></pitch><duration>2</duration><voice>2</voice><type>eighth</type></note><backup><duration>2</duration></backup><note><pitch><step>A</step><alter>1</alter><octave>4</octave></pitch><duration>2</duration><voice>1</voice><type>eighth</type></note><note><pitch><step>D</step><alter>1</alter><octave>3</octave></pitch><duration>2</duration><voice>2</voice><type>eighth</type></note><note><chord/><pitch><step>D</step><alter>1</alter><octave>2</octave></pitch><duration>2</duration><voice>2</voice><type>eighth</type></note><note><pitch><step>D</step><alter>1</alter><octave>2</octave></pitch><duration>2</duration><voice>2</voice><type>eighth</type><tie type="start"/><notations><tied type="start"/></notations></note><backup><duration>1</duration></backup><note><rest/><duration>3</duration><voice>1</voice><type>eighth</type></note><backup><duration>2</duration></backup><note><pitch><step>D</step><alter>1</alter><octave>3</octave></pitch><duration>2</duration><voice>2</voice><type>eighth</type></note><note><pitch><step>D</step><alter>1</alter><octave>2</octave></pitch><duration>2</duration><voice>2</voice><type>eighth</type><tie type="stop"/><notations><tied type="stop"/></notations></note><backup><duration>2</duration></backup><note><pitch><step>D</step><alter>1</alter><octave>5</octave></pitch><duration>2</duration><voice>1</voice><type>eighth</type></note></measure><measure number="12"><note><pitch><step>A</step><alter>1</alter><octave>2</octave></pitch><duration>4</duration><voice>2</voice><type>quarter</type></note><note><chord/><pitch><step>A</step><alter>1</alter><octave>1</octave></pitch><duration>4</duration><voice>2</voice><type>quarter</type></note><backup><duration>4</duration></backup><note><pitch><step>D</step><alter>1</alter><octave>5</octave></pitch><duration>4</duration><voice>1</voice><type>quarter</type></note><note><pitch><step>A</step><alter>1</alter><octave>2</octave></pitch><duration>4</duration><voice>2</voice><type>quarter</type></note><backup><duration>4</duration></backup><note><pitch><step>F</step><octave>5</octave></pitch><duration>4</duration><voice>1</voice><type>quarter</type><notations><articulations><staccato/></articulations></notations></note><note><pitch><step>A</step><alter>1</alter><octave>1</octave></pitch><duration>2</duration><voice>2</voice><type>eighth</type></note><backup><duration>2</duration></backup><note><pitch><step>A</step><alter>1</alter><octave>4</octave></pitch><duration>2</duration><voice>1</voice><type>eighth</type><tie type="start"/><notations><tied type="start"/></notations></note><note><pitch><step>A</step><alter>1</alter><octave>2</octave></pitch><duration>2</duration><voice>2</voice><type>eighth</type></note><note><chord/><pitch><step>A</step><alter>1</alter><octave>1</octave></pitch><duration>2</duration><voice>2</voice><type>eighth</type></note><backup><duration>2</duration></backup><note><pitch><step>A</step><alter>1</alter><octave>4</octave></pitch><duration>2</duration><voice>1</voice><type>eighth</type><tie type="stop"/><notations><tied type="stop"/></notations></note><note><pitch><step>A</step><alter>1</alter><octave>1</octave></pitch><duration>2</duration><voice>2</voice><type>eighth</type></note><note><chord/><pitch><step>A</step><alter>1</alter><octave>2</octave></pitch><duration>2</duration><voice>2</voice><type>eighth</type></note><backup><duration>2</duration></backup><note><rest/><duration>2</duration><voice>1</voice><type>eighth</type></note><note><pitch><step>A</step><alter>1</alter><octave>1</octave></pitch><duration>2</duration><voice>2</voice><type>eighth</type></note><backup><duration>2</duration></backup><note><pitch><step>A</step><alter>1</alter><octave>4</octave></pitch><duration>2</duration><voice>1</voice><type>eighth</type></note></measure><measure number="13"><note><pitch><step>C</step><octave>3</octave></pitch><duration>4</duration><voice>2</voice><type>quarter</type></note><note><chord/><pitch><step>C</step><octave>2</octave></pitch><duration>4</duration><voice>2</voice><type>quarter</type></note><backup><duration>4</duration></backup><note><pitch><step>G</step><octave>5</octave></pitch><duration>4</duration><voice>1</voice><type>quarter</type></note><note><pitch><step>C</step><octave>3</octave></pitch><duration>2</duration><voice>2</voice><type>eighth</type></note><backup><duration>2</duration></backup><note><pitch><step>G</step><alter>1</alter><octave>5</octave></pitch><duration>2</duration><voice>1</voice><type>eighth</type><notations><articulations><staccato/></articulations></notations></note><note><pitch><step>C</step><octave>2</octave></pitch><duration>2</duration><voice>2</voice><type>eighth</type></note><backup><duration>2</duration></backup><note><pitch><step>G</step><octave>5</octave></pitch><duration>2</duration><voice>1</voice><type>eighth</type></note><note><pitch><step>A</step><alter>1</alter><octave>2</octave></pitch><duration>4</duration><voice>2</voice><type>quarter</type></note><note><chord/><pitch><step>A</step><alter>1</alter><octave>1</octave></pitch><duration>4</duration><voice>2</voice><type>quarter</type></note><backup><duration>4</duration></backup><note><pitch><step>F</step><octave>5</octave></pitch><duration>4</duration><voice>1</voice><type>quarter</type><notations><articulations><staccato/></articulations></notations></note><note><pitch><step>A</step><alter>1</alter><octave>2</octave></pitch><duration>2</duration><voice>2</voice><type>eighth</type></note><backup><duration>2</duration></backup><note><pitch><step>D</step><alter>1</alter><octave>5</octave></pitch><duration>2</duration><voice>1</voice><type>eighth</type></note><note><pitch><step>A</step><alter>1</alter><octave>1</octave></pitch><duration>2</duration><voice>2</voice><type>eighth</type></note><backup><duration>2</duration></backup><note><pitch><step>F</step><octave>5</octave></pitch><duration>2</duration><voice>1</voice><type>eighth</type></note></measure><measure number="14"><note><pitch><step>G</step><alter>1</alter><octave>2</octave></pitch><duration>4</duration><voice>2</voice><type>quarter</type></note><note><chord/><pitch><step>G</step><alter>1</alter><octave>1</octave></pitch><duration>4</duration><voice>2</voice><type>quarter</type></note><backup><duration>4</duration></backup><note><pitch><step>G</step><octave>5</octave></pitch><duration>4</duration><voice>1</voice><type>quarter</type></note><note><pitch><step>G</step><alter>1</alter><octave>2</octave></pitch><duration>2</duration><voice>2</voice><type>eighth</type></note><backup><duration>2</duration></backup><note><pitch><step>G</step><alter>1</alter><octave>5</octave></pitch><duration>2</duration><voice>1</voice><type>eighth</type><notations><articulations><staccato/></articulations></notations></note><note><pitch><step>G</step><alter>1</alter><octave>1</octave></pitch><duration>2</duration><voice>2</voice><type>eighth</type></note><backup><duration>2</duration></backup><note><pitch><step>G</step><octave>5</octave></pitch><duration>2</duration><voice>1</voice><type>eighth</type></note><note><pitch><step>G</step><alter>1</alter><octave>2</octave></pitch><duration>2</duration><voice>2</voice><type>eighth</type></note><note><chord/><pitch><step>G</step><alter>1</alter><octave>1</octave></pitch><duration>2</duration><voice>2</voice><type>eighth</type></note><backup><duration>2</duration></backup><note><pitch><step>C</step><octave>5</octave></pitch><duration>2</duration><voice>1</voice><type>eighth</type></note><note><pitch><step>G</step><alter>1</alter><octave>1</octave></pitch><duration>2</duration><voice>2</voice><type>eighth</type><tie type="start"/><notations><tied type="start"/></notations></note><note><pitch><step>G</step><alter>1</alter><octave>2</octave></pitch><dot/><duration>3</duration><voice>2</voice><type>eighth</type></note><backup><duration>3</duration></backup><note><rest/><duration>3</duration><voice>1</voice><type>eighth</type></note><note><pitch><step>G</step><alter>1</alter><octave>1</octave></pitch><duration>1</duration><voice>2</voice><type>sixteenth</type><tie type="stop"/><notations><tied type="stop"/></notations></note><backup><duration>1</duration></backup><note><pitch><step>D</step><octave>5</octave></pitch><duration>1</duration><voice>1</voice><type>sixteenth</type></note><note><chord/><pitch><step>C</step><octave>5</octave></pitch><duration>1</duration><voice>1</voice><type>sixteenth</type></note></measure><measure number="15"><note><pitch><step>A</step><alter>1</alter><octave>2</octave></pitch><duration>4</duration><voice>2</voice><type>quarter</type></note><note><chord/><pitch><step>A</step><alter>1</alter><octave>1</octave></pitch><duration>4</duration><voice>2</voice><type>quarter</type></note><backup><duration>4</duration></backup><note><pitch><step>D</step><alter>1</alter><octave>5</octave></pitch><duration>4</duration><voice>1</voice><type>quarter</type><tie type="start"/><notations><tied type="start"/></notations></note><note><pitch><step>A</step><alter>1</alter><octave>2</octave></pitch><duration>2</duration><voice>2</voice><type>eighth</type></note><backup><duration>2</duration></backup><note><pitch><step>D</step><alter>1</alter><octave>5</octave></pitch><duration>2</duration><voice>1</voice><type>eighth</type><tie type="stop"/><notations><tied type="stop"/></notations></note><note><pitch><step>A</step><alter>1</alter><octave>1</octave></pitch><duration>2</duration><voice>2</voice><type>eighth</type></note><backup><duration>2</duration></backup><note><pitch><step>D</step><octave>5</octave></pitch><duration>2</duration><voice>1</voice><type>eighth</type><tie type="start"/><notations><tied type="start"/></notations></note><note><pitch><step>A</step><alter>1</alter><octave>2</octave></pitch><duration>2</duration><voice>2</voice><type>eighth</type></note><note><chord/><pitch><step>A</step><alter>1</alter><octave>1</octave></pitch><duration>2</duration><voice>2</voice><type>eighth</type></note><backup><duration>2</duration></backup><note><pitch><step>D</step><octave>5</octave></pitch><duration>2</duration><voice>1</voice><type>eighth</type><tie type="stop"/><notations><tied type="stop"/></notations></note><note><pitch><step>A</step><alter>1</alter><octave>1</octave></pitch><duration>2</duration><voice>2</voice><type>eighth</type><tie type="start"/><notations><tied type="start"/></notations></note><note><pitch><step>A</step><alter>1</alter><octave>2</octave></pitch><dot/><duration>3</duration><voice>2</voice><type>eighth</type></note><backup><duration>3</duration></backup><note><rest/><duration>3</duration><voice>1</voice><type>eighth</type></note><note><pitch><step>A</step><alter>1</alter><octave>1</octave></pitch><duration>1</duration><voice>2</voice><type>sixteenth</type><tie type="stop"/><notations><tied type="stop"/></notations></note><backup><duration>1</duration></backup><note><pitch><step>F</step><octave>5</octave></pitch><duration>1</duration><voice>1</voice><type>sixteenth</type></note><note><chord/><pitch><step>D</step><alter>1</alter><octave>5</octave></pitch><duration>1</duration><voice>1</voice><type>sixteenth</type></note></measure><measure number="16"><note><pitch><step>D</step><alter>1</alter><octave>3</octave></pitch><duration>4</duration><voice>2</voice><type>quarter</type></note><note><chord/><pitch><step>D</step><alter>1</alter><octave>2</octave></pitch><duration>4</duration><voice>2</voice><type>quarter</type></note><backup><duration>4</duration></backup><note><pitch><step>G</step><alter>1</alter><octave>5</octave></pitch><duration>4</duration><voice>1</voice><type>quarter</type><notations><articulations><staccato/></articulations></notations></note><note><pitch><step>D</step><alter>1</alter><octave>3</octave></pitch><duration>2</duration><voice>2</voice><type>eighth</type></note><backup><duration>2</duration></backup><note><pitch><step>G</step><octave>5</octave></pitch><duration>2</duration><voice>1</voice><type>eighth</type></note><note><pitch><step>D</step><alter>1</alter><octave>2</octave></pitch><duration>2</duration><voice>2</voice><type>eighth</type></note><backup><duration>2</duration></backup><note><pitch><step>F</step><octave>5</octave></pitch><duration>2</duration><voice>1</voice><type>eighth</type></note><note><pitch><step>C</step><octave>3</octave></pitch><duration>2</duration><voice>2</voice><type>eighth</type></note><note><chord/><pitch><step>C</step><octave>2</octave></pitch><duration>2</duration><voice>2</voice><type>eighth</type></note><backup><duration>2</duration></backup><note><pitch><step>D</step><alter>1</alter><octave>5</octave></pitch><duration>2</duration><voice>1</voice><type>eighth</type></note><note><pitch><step>C</step><octave>2</octave></pitch><duration>2</duration><voice>2</voice><type>eighth</type><tie type="start"/><notations><tied type="start"/></notations></note><note><pitch><step>C</step><octave>3</octave></pitch><duration>2</duration><voice>2</voice><type>eighth</type></note><backup><duration>2</duration></backup><note><rest/><duration>2</duration><voice>1</voice><type>eighth</type></note><note><pitch><step>C</step><octave>2</octave></pitch><duration>2</duration><voice>2</voice><type>eighth</type><tie type="stop"/><notations><tied type="stop"/></notations></note><backup><duration>2</duration></backup><note><pitch><step>G</step><octave>5</octave></pitch><duration>2</duration><voice>1</voice><type>eighth</type></note></measure></part></score-partwise>