<svg xmlns="http://www.w3.org/2000/svg" width="1000" height="1415" viewBox="0 0 1000 1415">
<rect width="100%" height="100%" fill="#fff"/>
<style>text{font:12px sans-serif}.measure{fill:none;stroke:#999;stroke-width:1;stroke-dasharray:4 4}.note{fill:#2f6fed;fill-opacity:.55;stroke:#174ea6;stroke-width:1}.stem{stroke:#198754;stroke-width:2}.beam{fill:#f28c28;fill-opacity:.5;stroke:#b85d00;stroke-width:1}.group{fill:#111}</style>
<rect class="measure" x="65" y="106" width="355" height="122"/>
<text class="group" x="68" y="102">m17</text>
<line class="stem" x1="161.09" y1="211.51" x2="161.09" y2="241.51"><title>n-17-0-157-212-stem</title></line>
<line class="stem" x1="224.14" y1="211.51" x2="224.14" y2="219.51"><title>n-17-4-220-212-stem</title></line>
<line class="stem" x1="292.5" y1="211.51" x2="292.5" y2="219.51"><title>n-17-7-288-212-stem</title></line>
<line class="stem" x1="360.86" y1="211.51" x2="360.86" y2="219.51"><title>n-17-11-357-212-stem</title></line>
<circle class="note" cx="157.09" cy="211.51" r="4"><title>n-17-0-157-212 stems=1 beams=0</title></circle>
<circle class="note" cx="157.09" cy="240.92" r="4"><title>n-17-1-157-241 stems=0 beams=0</title></circle>
<circle class="note" cx="157.09" cy="102.29" r="4"><title>n-17-2-157-102 stems=0 beams=0</title></circle>
<circle class="note" cx="198.77" cy="106.49" r="4"><title>n-17-3-199-106 stems=0 beams=0</title></circle>
<circle class="note" cx="220.14" cy="211.51" r="4"><title>n-17-4-220-212 stems=1 beams=0</title></circle>
<circle class="note" cx="254.32" cy="240.92" r="4"><title>n-17-5-254-241 stems=0 beams=0</title></circle>
<circle class="note" cx="254.32" cy="110.69" r="4"><title>n-17-6-254-111 stems=0 beams=0</title></circle>
<circle class="note" cx="288.5" cy="211.51" r="4"><title>n-17-7-288-212 stems=1 beams=0</title></circle>
<circle class="note" cx="288.5" cy="240.92" r="4"><title>n-17-8-288-241 stems=0 beams=0</title></circle>
<circle class="note" cx="288.5" cy="106.49" r="4"><title>n-17-9-288-106 stems=0 beams=0</title></circle>
<circle class="note" cx="322.68" cy="240.92" r="4"><title>n-17-10-323-241 stems=0 beams=0</title></circle>
<circle class="note" cx="356.86" cy="211.51" r="4"><title>n-17-11-357-212 stems=1 beams=0</title></circle>
<circle class="note" cx="356.86" cy="119.09" r="4"><title>n-17-12-357-119 stems=0 beams=0</title></circle>
<circle class="note" cx="391.04" cy="240.92" r="4"><title>n-17-13-391-241 stems=0 beams=0</title></circle>
</svg>
