<svg xmlns="http://www.w3.org/2000/svg" width="1000" height="1415" viewBox="0 0 1000 1415">
<rect width="100%" height="100%" fill="#fff"/>
<style>text{font:12px sans-serif}.measure{fill:none;stroke:#999;stroke-width:1;stroke-dasharray:4 4}.note{fill:#2f6fed;fill-opacity:.55;stroke:#174ea6;stroke-width:1}.stem{stroke:#198754;stroke-width:2}.beam{fill:#f28c28;fill-opacity:.5;stroke:#b85d00;stroke-width:1}.group{fill:#111}</style>
<rect class="measure" x="112" y="190" width="229" height="122"/>
<text class="group" x="115" y="186">m1</text>
<line class="stem" x1="206.92" y1="312.32" x2="206.92" y2="333.32"><title>n-1-0-211-312-stem</title></line>
<line class="stem" x1="267.27" y1="257.7" x2="267.27" y2="275.7"><title>n-1-1-263-258-stem</title></line>
<line class="stem" x1="267.27" y1="266.1" x2="267.27" y2="276.1"><title>n-1-2-263-266-stem</title></line>
<line class="stem" x1="267.27" y1="238.51" x2="267.27" y2="274.51"><title>n-1-3-263-275-stem</title></line>
<circle class="note" cx="210.92" cy="312.32" r="4"><title>n-1-0-211-312 stems=1 beams=0</title></circle>
<circle class="note" cx="263.27" cy="257.7" r="4"><title>n-1-1-263-258 stems=1 beams=0</title></circle>
<circle class="note" cx="263.27" cy="266.1" r="4"><title>n-1-2-263-266 stems=1 beams=0</title></circle>
<circle class="note" cx="263.27" cy="274.51" r="4"><title>n-1-3-263-275 stems=1 beams=0</title></circle>
<rect class="measure" x="341" y="190" width="151" height="122"/>
<text class="group" x="344" y="186">m2</text>
<line class="stem" x1="365.57" y1="324.92" x2="365.57" y2="362.92"><title>n-2-0-362-325-stem</title></line>
<line class="stem" x1="417.91" y1="257.7" x2="417.91" y2="279.7"><title>n-2-1-414-258-stem</title></line>
<line class="stem" x1="417.91" y1="270.31" x2="417.91" y2="280.31"><title>n-2-2-414-270-stem</title></line>
<line class="stem" x1="417.91" y1="278.71" x2="417.91" y2="286.71"><title>n-2-3-414-279-stem</title></line>
<circle class="note" cx="361.57" cy="324.92" r="4"><title>n-2-0-362-325 stems=1 beams=0</title></circle>
<circle class="note" cx="413.91" cy="257.7" r="4"><title>n-2-1-414-258 stems=1 beams=0</title></circle>
<circle class="note" cx="413.91" cy="270.31" r="4"><title>n-2-2-414-270 stems=1 beams=0</title></circle>
<circle class="note" cx="413.91" cy="278.71" r="4"><title>n-2-3-414-279 stems=1 beams=0</title></circle>
<rect class="measure" x="492" y="190" width="148" height="122"/>
<text class="group" x="495" y="186">m3</text>
<line class="stem" x1="505.27" y1="312.32" x2="505.27" y2="334.32"><title>n-3-0-509-312-stem</title></line>
<line class="stem" x1="565.62" y1="257.7" x2="565.62" y2="275.7"><title>n-3-1-562-258-stem</title></line>
<line class="stem" x1="565.62" y1="266.1" x2="565.62" y2="276.1"><title>n-3-2-562-266-stem</title></line>
<line class="stem" x1="565.62" y1="238.51" x2="565.62" y2="274.51"><title>n-3-3-562-275-stem</title></line>
<circle class="note" cx="509.27" cy="312.32" r="4"><title>n-3-0-509-312 stems=1 beams=0</title></circle>
<circle class="note" cx="561.62" cy="257.7" r="4"><title>n-3-1-562-258 stems=1 beams=0</title></circle>
<circle class="note" cx="561.62" cy="266.1" r="4"><title>n-3-2-562-266 stems=1 beams=0</title></circle>
<circle class="note" cx="561.62" cy="274.51" r="4"><title>n-3-3-562-275 stems=1 beams=0</title></circle>
<rect class="measure" x="640" y="190" width="150" height="122"/>
<text class="group" x="643" y="186">m4</text>
<line class="stem" x1="655.91" y1="324.92" x2="655.91" y2="342.92"><title>n-4-0-660-325-stem</title></line>
<line class="stem" x1="716.26" y1="257.7" x2="716.26" y2="280.7"><title>n-4-1-712-258-stem</title></line>
<line class="stem" x1="716.26" y1="270.31" x2="716.26" y2="281.31"><title>n-4-2-712-270-stem</title></line>
<line class="stem" x1="716.26" y1="278.71" x2="716.26" y2="286.71"><title>n-4-3-712-279-stem</title></line>
<circle class="note" cx="659.91" cy="324.92" r="4"><title>n-4-0-660-325 stems=1 beams=0</title></circle>
<circle class="note" cx="712.26" cy="257.7" r="4"><title>n-4-1-712-258 stems=1 beams=0</title></circle>
<circle class="note" cx="712.26" cy="270.31" r="4"><title>n-4-2-712-270 stems=1 beams=0</title></circle>
<circle class="note" cx="712.26" cy="278.71" r="4"><title>n-4-3-712-279 stems=1 beams=0</title></circle>
<rect class="measure" x="790" y="190" width="176" height="122"/>
<text class="group" x="793" y="186">m5</text>
<line class="stem" x1="802.61" y1="312.32" x2="802.61" y2="334.32"><title>n-5-0-808-312-stem</title></line>
<line class="stem" x1="853.32" y1="190.48" x2="853.32" y2="219.48"><title>n-5-1-857-190-stem</title></line>
<line class="stem" x1="861.32" y1="257.7" x2="861.32" y2="275.7"><title>n-5-2-857-258-stem</title></line>
<line class="stem" x1="861.32" y1="266.1" x2="861.32" y2="276.1"><title>n-5-3-857-266-stem</title></line>
<line class="stem" x1="862.32" y1="237.51" x2="862.32" y2="274.51"><title>n-5-4-857-275-stem</title></line>
<line class="stem" x1="903.03" y1="182.08" x2="903.03" y2="210.08"><title>n-5-5-907-182-stem</title></line>
<circle class="note" cx="807.61" cy="312.32" r="4"><title>n-5-0-808-312 stems=1 beams=0</title></circle>
<circle class="note" cx="857.32" cy="190.48" r="4"><title>n-5-1-857-190 stems=1 beams=0</title></circle>
<circle class="note" cx="857.32" cy="257.7" r="4"><title>n-5-2-857-258 stems=1 beams=0</title></circle>
<circle class="note" cx="857.32" cy="266.1" r="4"><title>n-5-3-857-266 stems=1 beams=0</title></circle>
<circle class="note" cx="857.32" cy="274.51" r="4"><title>n-5-4-857-275 stems=1 beams=0</title></circle>
<circle class="note" cx="907.03" cy="182.08" r="4"><title>n-5-5-907-182 stems=1 beams=0</title></circle>
<rect class="measure" x="59" y="403" width="238" height="148"/>
<text class="group" x="62" y="399">m6</text>
<line class="stem" x1="138.83" y1="399.35" x2="138.83" y2="429.35"><title>n-6-0-143-399-stem</title></line>
<line class="stem" x1="138.83" y1="563.41" x2="138.83" y2="581.41"><title>n-6-1-143-563-stem</title></line>
<line class="stem" x1="192.21" y1="403.55" x2="192.21" y2="431.55"><title>n-6-2-196-404-stem</title></line>
<line class="stem" x1="200.21" y1="496.19" x2="200.21" y2="519.19"><title>n-6-3-196-496-stem</title></line>
<line class="stem" x1="200.21" y1="508.8" x2="200.21" y2="518.8"><title>n-6-4-196-509-stem</title></line>
<line class="stem" x1="200.21" y1="517.2" x2="200.21" y2="525.2"><title>n-6-5-196-517-stem</title></line>
<line class="stem" x1="244.59" y1="416.16" x2="244.59" y2="443.16"><title>n-6-6-250-416-stem</title></line>
<circle class="note" cx="142.83" cy="399.35" r="4"><title>n-6-0-143-399 stems=1 beams=0</title></circle>
<circle class="note" cx="142.83" cy="563.41" r="4"><title>n-6-1-143-563 stems=1 beams=0</title></circle>
<circle class="note" cx="196.21" cy="403.55" r="4"><title>n-6-2-196-404 stems=1 beams=0</title></circle>
<circle class="note" cx="196.21" cy="496.19" r="4"><title>n-6-3-196-496 stems=1 beams=0</title></circle>
<circle class="note" cx="196.21" cy="508.8" r="4"><title>n-6-4-196-509 stems=1 beams=0</title></circle>
<circle class="note" cx="196.21" cy="517.2" r="4"><title>n-6-5-196-517 stems=1 beams=0</title></circle>
<circle class="note" cx="249.59" cy="416.16" r="4"><title>n-6-6-250-416 stems=1 beams=0</title></circle>
<rect class="measure" x="297" y="403" width="172" height="148"/>
<text class="group" x="300" y="399">m7</text>
<line class="stem" x1="309.57" y1="420.36" x2="309.57" y2="446.36"><title>n-7-0-315-420-stem</title></line>
<line class="stem" x1="309.57" y1="550.81" x2="309.57" y2="571.81"><title>n-7-1-315-551-stem</title></line>
<line class="stem" x1="363.95" y1="416.16" x2="363.95" y2="442.16"><title>n-7-2-368-416-stem</title></line>
<line class="stem" x1="371.95" y1="496.19" x2="371.95" y2="515.19"><title>n-7-3-368-496-stem</title></line>
<line class="stem" x1="371.95" y1="504.59" x2="371.95" y2="514.59"><title>n-7-4-368-505-stem</title></line>
<line class="stem" x1="371.95" y1="477" x2="371.95" y2="513"><title>n-7-5-368-513-stem</title></line>
<line class="stem" x1="417.33" y1="411.96" x2="417.33" y2="439.96"><title>n-7-6-421-412-stem</title></line>
<circle class="note" cx="314.57" cy="420.36" r="4"><title>n-7-0-315-420 stems=1 beams=0</title></circle>
<circle class="note" cx="314.57" cy="550.81" r="4"><title>n-7-1-315-551 stems=1 beams=0</title></circle>
<circle class="note" cx="367.95" cy="416.16" r="4"><title>n-7-2-368-416 stems=1 beams=0</title></circle>
<circle class="note" cx="367.95" cy="496.19" r="4"><title>n-7-3-368-496 stems=1 beams=0</title></circle>
<circle class="note" cx="367.95" cy="504.59" r="4"><title>n-7-4-368-505 stems=1 beams=0</title></circle>
<circle class="note" cx="367.95" cy="513" r="4"><title>n-7-5-368-513 stems=1 beams=0</title></circle>
<circle class="note" cx="421.33" cy="411.96" r="4"><title>n-7-6-421-412 stems=1 beams=0</title></circle>
<rect class="measure" x="469" y="403" width="162" height="148"/>
<text class="group" x="472" y="399">m8</text>
<line class="stem" x1="493.25" y1="418.56" x2="493.25" y2="424.56"><title>n-8-0-489-425-stem</title></line>
<line class="stem" x1="485.25" y1="563.41" x2="485.25" y2="581.41"><title>n-8-1-489-563-stem</title></line>
<line class="stem" x1="549.83" y1="496.19" x2="549.83" y2="519.19"><title>n-8-2-546-496-stem</title></line>
<line class="stem" x1="549.83" y1="508.8" x2="549.83" y2="518.8"><title>n-8-3-546-509-stem</title></line>
<line class="stem" x1="549.83" y1="517.2" x2="549.83" y2="525.2"><title>n-8-4-546-517-stem</title></line>
<circle class="note" cx="489.25" cy="424.56" r="4"><title>n-8-0-489-425 stems=1 beams=0</title></circle>
<circle class="note" cx="489.25" cy="563.41" r="4"><title>n-8-1-489-563 stems=1 beams=0</title></circle>
<circle class="note" cx="545.83" cy="496.19" r="4"><title>n-8-2-546-496 stems=1 beams=0</title></circle>
<circle class="note" cx="545.83" cy="508.8" r="4"><title>n-8-3-546-509 stems=1 beams=0</title></circle>
<circle class="note" cx="545.83" cy="517.2" r="4"><title>n-8-4-546-517 stems=1 beams=0</title></circle>
<rect class="measure" x="631" y="403" width="159" height="148"/>
<text class="group" x="634" y="399">m9</text>
<line class="stem" x1="651.96" y1="402.96" x2="651.96" y2="432.96"><title>n-9-0-648-433-stem</title></line>
<line class="stem" x1="643.96" y1="550.81" x2="643.96" y2="571.81"><title>n-9-1-648-551-stem</title></line>
<line class="stem" x1="708.55" y1="496.19" x2="708.55" y2="514.19"><title>n-9-2-705-496-stem</title></line>
<line class="stem" x1="708.55" y1="504.59" x2="708.55" y2="513.59"><title>n-9-3-705-505-stem</title></line>
<line class="stem" x1="708.55" y1="477" x2="708.55" y2="513"><title>n-9-4-705-513-stem</title></line>
<circle class="note" cx="647.96" cy="432.96" r="4"><title>n-9-0-648-433 stems=1 beams=0</title></circle>
<circle class="note" cx="647.96" cy="550.81" r="4"><title>n-9-1-648-551 stems=1 beams=0</title></circle>
<circle class="note" cx="704.55" cy="496.19" r="4"><title>n-9-2-705-496 stems=1 beams=0</title></circle>
<circle class="note" cx="704.55" cy="504.59" r="4"><title>n-9-3-705-505 stems=1 beams=0</title></circle>
<circle class="note" cx="704.55" cy="513" r="4"><title>n-9-4-705-513 stems=1 beams=0</title></circle>
<rect class="measure" x="790" y="403" width="176" height="148"/>
<text class="group" x="793" y="399">m10</text>
<line class="stem" x1="813.62" y1="402.96" x2="813.62" y2="432.96"><title>n-10-0-810-433-stem</title></line>
<line class="stem" x1="804.62" y1="563.41" x2="804.62" y2="582.41"><title>n-10-1-810-563-stem</title></line>
<line class="stem" x1="870.2" y1="496.19" x2="870.2" y2="519.19"><title>n-10-2-866-496-stem</title></line>
<line class="stem" x1="870.2" y1="508.8" x2="870.2" y2="518.8"><title>n-10-3-866-509-stem</title></line>
<line class="stem" x1="870.2" y1="517.2" x2="870.2" y2="525.2"><title>n-10-4-866-517-stem</title></line>
<circle class="note" cx="809.62" cy="432.96" r="4"><title>n-10-0-810-433 stems=1 beams=0</title></circle>
<circle class="note" cx="809.62" cy="563.41" r="4"><title>n-10-1-810-563 stems=1 beams=0</title></circle>
<circle class="note" cx="866.2" cy="496.19" r="4"><title>n-10-2-866-496 stems=1 beams=0</title></circle>
<circle class="note" cx="866.2" cy="508.8" r="4"><title>n-10-3-866-509 stems=1 beams=0</title></circle>
<circle class="note" cx="866.2" cy="517.2" r="4"><title>n-10-4-866-517 stems=1 beams=0</title></circle>
<rect class="measure" x="59" y="641" width="220" height="146"/>
<text class="group" x="62" y="637">m11</text>
<line class="stem" x1="143.89" y1="641.45" x2="143.89" y2="671.45"><title>n-11-0-140-671-stem</title></line>
<line class="stem" x1="135.89" y1="787.59" x2="135.89" y2="808.59"><title>n-11-1-140-788-stem</title></line>
<line class="stem" x1="199.7" y1="732.98" x2="199.7" y2="750.98"><title>n-11-2-196-733-stem</title></line>
<line class="stem" x1="199.7" y1="741.38" x2="199.7" y2="751.38"><title>n-11-3-196-741-stem</title></line>
<line class="stem" x1="199.7" y1="713.78" x2="199.7" y2="749.78"><title>n-11-4-196-750-stem</title></line>
<circle class="note" cx="139.89" cy="671.45" r="4"><title>n-11-0-140-671 stems=1 beams=0</title></circle>
<circle class="note" cx="139.89" cy="787.59" r="4"><title>n-11-1-140-788 stems=1 beams=0</title></circle>
<circle class="note" cx="195.7" cy="732.98" r="4"><title>n-11-2-196-733 stems=1 beams=0</title></circle>
<circle class="note" cx="195.7" cy="741.38" r="4"><title>n-11-3-196-741 stems=1 beams=0</title></circle>
<circle class="note" cx="195.7" cy="749.78" r="4"><title>n-11-4-196-750 stems=1 beams=0</title></circle>
<rect class="measure" x="279" y="641" width="160" height="146"/>
<text class="group" x="282" y="637">m12</text>
<line class="stem" x1="303.53" y1="641.45" x2="303.53" y2="671.45"><title>n-12-0-300-671-stem</title></line>
<line class="stem" x1="294.53" y1="800.2" x2="294.53" y2="818.2"><title>n-12-1-300-800-stem</title></line>
<line class="stem" x1="359.34" y1="732.98" x2="359.34" y2="755.98"><title>n-12-2-355-733-stem</title></line>
<line class="stem" x1="359.34" y1="745.58" x2="359.34" y2="755.58"><title>n-12-3-355-746-stem</title></line>
<line class="stem" x1="359.34" y1="753.98" x2="359.34" y2="761.98"><title>n-12-4-355-754-stem</title></line>
<circle class="note" cx="299.53" cy="671.45" r="4"><title>n-12-0-300-671 stems=1 beams=0</title></circle>
<circle class="note" cx="299.53" cy="800.2" r="4"><title>n-12-1-300-800 stems=1 beams=0</title></circle>
<circle class="note" cx="355.34" cy="732.98" r="4"><title>n-12-2-355-733 stems=1 beams=0</title></circle>
<circle class="note" cx="355.34" cy="745.58" r="4"><title>n-12-3-355-746 stems=1 beams=0</title></circle>
<circle class="note" cx="355.34" cy="753.98" r="4"><title>n-12-4-355-754 stems=1 beams=0</title></circle>
<rect class="measure" x="439" y="641" width="170" height="146"/>
<text class="group" x="442" y="637">m13</text>
<line class="stem" x1="452.23" y1="787.59" x2="452.23" y2="808.59"><title>n-13-0-456-788-stem</title></line>
<line class="stem" x1="504.94" y1="642.04" x2="504.94" y2="670.04"><title>n-13-1-509-642-stem</title></line>
<line class="stem" x1="512.94" y1="732.98" x2="512.94" y2="750.98"><title>n-13-2-509-733-stem</title></line>
<line class="stem" x1="512.94" y1="741.38" x2="512.94" y2="751.38"><title>n-13-3-509-741-stem</title></line>
<line class="stem" x1="512.94" y1="713.78" x2="512.94" y2="749.78"><title>n-13-4-509-750-stem</title></line>
<line class="stem" x1="556.65" y1="633.64" x2="556.65" y2="661.64"><title>n-13-5-562-634-stem</title></line>
<circle class="note" cx="456.23" cy="787.59" r="4"><title>n-13-0-456-788 stems=1 beams=0</title></circle>
<circle class="note" cx="508.94" cy="642.04" r="4"><title>n-13-1-509-642 stems=1 beams=0</title></circle>
<circle class="note" cx="508.94" cy="732.98" r="4"><title>n-13-2-509-733 stems=1 beams=0</title></circle>
<circle class="note" cx="508.94" cy="741.38" r="4"><title>n-13-3-509-741 stems=1 beams=0</title></circle>
<circle class="note" cx="508.94" cy="749.78" r="4"><title>n-13-4-509-750 stems=1 beams=0</title></circle>
<circle class="note" cx="561.65" cy="633.64" r="4"><title>n-13-5-562-634 stems=1 beams=0</title></circle>
<rect class="measure" x="609" y="641" width="172" height="146"/>
<text class="group" x="612" y="637">m14</text>
<line class="stem" x1="624.89" y1="637.84" x2="624.89" y2="666.84"><title>n-14-0-629-638-stem</title></line>
<line class="stem" x1="624.89" y1="800.2" x2="624.89" y2="818.2"><title>n-14-1-629-800-stem</title></line>
<line class="stem" x1="676.6" y1="642.04" x2="676.6" y2="671.04"><title>n-14-2-682-642-stem</title></line>
<line class="stem" x1="685.6" y1="732.98" x2="685.6" y2="754.98"><title>n-14-3-682-733-stem</title></line>
<line class="stem" x1="685.6" y1="745.58" x2="685.6" y2="754.58"><title>n-14-4-682-746-stem</title></line>
<line class="stem" x1="685.6" y1="753.98" x2="685.6" y2="761.98"><title>n-14-5-682-754-stem</title></line>
<line class="stem" x1="730.31" y1="654.65" x2="730.31" y2="680.65"><title>n-14-6-734-655-stem</title></line>
<circle class="note" cx="628.89" cy="637.84" r="4"><title>n-14-0-629-638 stems=1 beams=0</title></circle>
<circle class="note" cx="628.89" cy="800.2" r="4"><title>n-14-1-629-800 stems=1 beams=0</title></circle>
<circle class="note" cx="681.6" cy="642.04" r="4"><title>n-14-2-682-642 stems=1 beams=0</title></circle>
<circle class="note" cx="681.6" cy="732.98" r="4"><title>n-14-3-682-733 stems=1 beams=0</title></circle>
<circle class="note" cx="681.6" cy="745.58" r="4"><title>n-14-4-682-746 stems=1 beams=0</title></circle>
<circle class="note" cx="681.6" cy="753.98" r="4"><title>n-14-5-682-754 stems=1 beams=0</title></circle>
<circle class="note" cx="734.31" cy="654.65" r="4"><title>n-14-6-734-655 stems=1 beams=0</title></circle>
<rect class="measure" x="781" y="641" width="185" height="146"/>
<text class="group" x="784" y="637">m15</text>
<line class="stem" x1="793.61" y1="658.85" x2="793.61" y2="683.85"><title>n-15-0-799-659-stem</title></line>
<line class="stem" x1="793.61" y1="787.59" x2="793.61" y2="808.59"><title>n-15-1-799-788-stem</title></line>
<line class="stem" x1="847.32" y1="654.65" x2="847.32" y2="680.65"><title>n-15-2-851-655-stem</title></line>
<line class="stem" x1="855.32" y1="732.98" x2="855.32" y2="742.98"><title>n-15-3-851-733-stem</title></line>
<line class="stem" x1="855.32" y1="741.38" x2="855.32" y2="754.38"><title>n-15-4-851-741-stem</title></line>
<line class="stem" x1="855.32" y1="713.78" x2="855.32" y2="749.78"><title>n-15-5-851-750-stem</title></line>
<line class="stem" x1="900.03" y1="650.44" x2="900.03" y2="678.44"><title>n-15-6-904-650-stem</title></line>
<circle class="note" cx="798.61" cy="658.85" r="4"><title>n-15-0-799-659 stems=1 beams=0</title></circle>
<circle class="note" cx="798.61" cy="787.59" r="4"><title>n-15-1-799-788 stems=1 beams=0</title></circle>
<circle class="note" cx="851.32" cy="654.65" r="4"><title>n-15-2-851-655 stems=1 beams=0</title></circle>
<circle class="note" cx="851.32" cy="732.98" r="4"><title>n-15-3-851-733 stems=1 beams=0</title></circle>
<circle class="note" cx="851.32" cy="741.38" r="4"><title>n-15-4-851-741 stems=1 beams=0</title></circle>
<circle class="note" cx="851.32" cy="749.78" r="4"><title>n-15-5-851-750 stems=1 beams=0</title></circle>
<circle class="note" cx="904.03" cy="650.44" r="4"><title>n-15-6-904-650 stems=1 beams=0</title></circle>
<rect class="measure" x="59" y="878" width="230" height="148"/>
<text class="group" x="62" y="874">m16</text>
<line class="stem" x1="146.83" y1="872.83" x2="146.83" y2="899.83"><title>n-16-0-143-900-stem</title></line>
<line class="stem" x1="137.83" y1="1038.69" x2="137.83" y2="1056.69"><title>n-16-1-143-1039-stem</title></line>
<line class="stem" x1="205.19" y1="971.47" x2="205.19" y2="994.47"><title>n-16-2-201-971-stem</title></line>
<line class="stem" x1="205.19" y1="984.07" x2="205.19" y2="994.07"><title>n-16-3-201-984-stem</title></line>
<line class="stem" x1="205.19" y1="992.47" x2="205.19" y2="1001.47"><title>n-16-4-201-992-stem</title></line>
<circle class="note" cx="142.83" cy="899.83" r="4"><title>n-16-0-143-900 stems=1 beams=0</title></circle>
<circle class="note" cx="142.83" cy="1038.69" r="4"><title>n-16-1-143-1039 stems=1 beams=0</title></circle>
<circle class="note" cx="201.19" cy="971.47" r="4"><title>n-16-2-201-971 stems=1 beams=0</title></circle>
<circle class="note" cx="201.19" cy="984.07" r="4"><title>n-16-3-201-984 stems=1 beams=0</title></circle>
<circle class="note" cx="201.19" cy="992.47" r="4"><title>n-16-4-201-992 stems=1 beams=0</title></circle>
</svg>
